<svg xmlns="http://www.w3.org/2000/svg" width="256" height="256" viewBox="0 0 100 100"><rect width="100" height="100" rx="20" fill="#fa7055"></rect><path d="M40.69 49.54L40.69 49.54Q40.69 45.31 39.41 42.31Q38.12 39.31 35.91 37.39Q33.70 35.48 30.76 34.59Q27.82 33.70 24.46 33.70L24.46 33.70Q22.35 33.70 20.79 33.83Q19.24 33.96 17.92 34.23L17.92 34.23L17.92 65.64Q19.51 66.04 21.32 66.17Q23.14 66.30 25.05 66.30L25.05 66.30Q32.84 66.30 36.77 62.08Q40.69 57.85 40.69 49.54ZM46.17 49.54L46.17 49.54Q46.17 54.95 44.69 58.94Q43.20 62.94 40.46 65.58Q37.72 68.22 33.83 69.50Q29.94 70.79 25.12 70.79L25.12 70.79Q23.01 70.79 20.37 70.63Q17.73 70.46 15.35 69.73L15.35 69.73Q12.58 68.88 12.58 66.70L12.58 66.70L12.58 32.77Q12.58 31.72 13.11 31.16Q13.63 30.60 14.76 30.27L14.76 30.27Q16.80 29.61 19.38 29.41Q21.95 29.21 24.52 29.21L24.52 29.21Q29.34 29.21 33.33 30.50Q37.33 31.78 40.17 34.32Q43.00 36.87 44.59 40.66Q46.17 44.46 46.17 49.54ZM58.51 70.39L58.51 70.39Q55.61 70.39 55.61 68.02L55.61 68.02L55.61 30.73Q56.80 29.54 59.17 29.54L59.17 29.54Q60.76 29.54 61.88 30.17Q63.00 30.79 63.93 32.44L63.93 32.44L76.53 53.56Q77.32 54.95 78.18 56.50Q79.04 58.05 79.83 59.60Q80.62 61.15 81.32 62.51Q82.01 63.86 82.47 64.78L82.47 64.78L82.74 64.72Q82.21 59.37 82.11 53.96Q82.01 48.55 82.01 43.40L82.01 43.40L82.01 30.07Q82.41 29.94 83.07 29.77Q83.73 29.61 84.52 29.61L84.52 29.61Q87.42 29.61 87.42 31.98L87.42 31.98L87.42 69.34Q86.83 69.87 85.90 70.16Q84.98 70.46 83.86 70.46L83.86 70.46Q82.27 70.46 81.15 69.83Q80.03 69.21 79.11 67.56L79.11 67.56L66.57 46.44Q65.77 45.12 64.88 43.53Q63.99 41.95 63.17 40.43Q62.34 38.91 61.65 37.53Q60.96 36.14 60.49 35.22L60.49 35.22L60.23 35.28Q60.56 38.45 60.76 42.51Q60.96 46.57 60.96 50.20L60.96 50.20L60.96 69.93Q60.63 70.06 59.93 70.23Q59.24 70.39 58.51 70.39Z" fill="#ffffff"></path></svg>