<?xml version="1.0" encoding="UTF-8"?><svg id="a" xmlns="http://www.w3.org/2000/svg" width="380" height="445" viewBox="0 0 380 445"><defs><style>.b{fill:#eae4e1;}.c{fill:#f83e2c;}.d{fill:#e7a573;}.e{fill:#fdcbb9;}.f{fill:#fff;}.g{fill:#ff4100;}.h{fill:#673400;}.i{fill:#aeb8c1;}.j{fill:#c72f26;}.k{fill:#d86a6a;}.l{fill:#868e93;}.m{fill:#e2e4e6;opacity:.6;}</style></defs><g><g><path d="M248.86,353.75l6.14-4.26-1.96-18.57-1.43-11.27-1.06-12.73-1.24-12.73-4.99-25.37c0-.65-.46-1.19-1.04-1.19l-9.22-.04c-.57,0-1.04,.53-1.04,1.18l8.77,29.49,1.78,17.39,3.4,24.2,1.65,12.74s-.06,.11-.11,.18c.16,.3,.28,.62,.34,.96Zm-.23-1.14l-.02-.13c.05,0,.06,.05,.02,.13Z"/><path d="M245.15,353.82l45.48,.18c.02-8.02-10.14-14.56-22.7-14.61-12.55-.05-22.76,6.41-22.78,14.43Z"/></g><g><path d="M144.89,351.93c-.05-.07-.09-.13-.11-.18l1.69-12.74,3.48-24.19,1.84-17.38,8.86-29.45c0-.65-.47-1.18-1.04-1.18h-9.22c-.57,0-1.04,.53-1.04,1.18l-5.07,25.35-1.28,12.72-1.1,12.72-1.46,11.26-2.01,18.56,6.13,4.28c.06-.34,.18-.66,.34-.96Zm-.09-.32l-.02,.13c-.04-.09-.04-.13,.02-.13Z"/><path d="M148.25,352.97h-45.48c0-8.02,10.18-14.52,22.74-14.52s22.74,6.5,22.74,14.52Z"/></g><path class="l" d="M79.54,148.01c-8.32,0-15.07,8.69-15.07,19.4s6.75,19.4,15.07,19.4,15.07-8.69,15.07-19.4-6.75-19.4-15.07-19.4Zm-.97,32.38c-6.52,0-11.81-4.12-11.81-13.24s5.29-12.98,11.81-12.98,12.15,3.86,12.15,12.98-5.63,13.24-12.15,13.24Z"/><path class="i" d="M81.09,138.05v55.05H39.83v-55.05c0-.09,.03-.18,.08-.26h41.11c.05,.09,.08,.17,.08,.26Z"/><path class="b" d="M81.09,138.05c0,.47-.75,.92-2.07,1.32-3.35,1-10.4,1.69-18.56,1.69s-15.37-.71-18.67-1.73c-1.26-.39-1.96-.83-1.96-1.28,0-.09,.03-.18,.08-.26,.91-1.54,9.76-2.75,20.56-2.75s19.65,1.21,20.56,2.75c.05,.09,.08,.17,.08,.26Z"/><path class="h" d="M79.02,138.48c-3.34,1.3-10.37,2.19-18.51,2.19s-15.33-.92-18.62-2.24c3.34-1.3,10.37-2.19,18.51-2.19s15.33,.92,18.62,2.24Z"/><path class="i" d="M81.09,193.1c0,1.59-9.21,2.88-20.57,2.88s-20.57-1.29-20.57-2.88c0-.04,0-.08,.02-.12,.38-1.37,7.55-2.49,16.9-2.72,1.19-.03,2.41-.04,3.65-.04,11.36,0,20.57,1.29,20.57,2.88Z"/><path class="l" d="M81.09,138.05v55.05c0,1.59-9.21,2.88-20.57,2.88s-20.57-1.29-20.57-2.88h-.11v-.09s.08-.01,.13-.02c2.27-.38,9.79-1.63,16.9-2.72,5.14-.79,10.06-1.5,12.65-1.75,6.88-.66,5.96-48.5,7.71-48.71,.46-.05,.93-.17,1.37-.32,1.23-.4,2.26-1.01,2.31-1.04h0l.18-.4Z"/><path d="M92.75,172.7c-.06,7.3,.51,32.55,16.68,42.78,1.76,1.12,3.66,2.02,5.55,2.74,5.62,2.14,13.07,3.48,13.62,1.79,.54-1.64-5.14-7.07-10.57-8.63-.93-.27-2.87-.71-5.11-2.23-.97-.65-1.78-1.36-3.46-3.08-2.33-2.39-4.58-4.94-5.26-5.82-2.9-3.77-5.83-14.55-6.47-28.81"/><path class="j" d="M269.23,133.5c-31.35,0-56.77,27.98-56.77,62.48s25.42,62.48,56.77,62.48,56.77-27.98,56.77-62.48-25.42-62.48-56.77-62.48Zm-3.67,104.28c-24.56,0-44.47-13.26-44.47-42.64s19.91-41.8,44.47-41.8,45.76,12.42,45.76,41.8-21.2,42.64-45.76,42.64Z"/><path class="c" d="M274.37,100.57H119.64v178.16h155.42V101.36c-.1-.09-.19-.19-.27-.29-.16-.15-.3-.32-.41-.51Z"/><path class="d" d="M274.62,101.41c0,1.52-2.8,2.97-7.79,4.25-12.58,3.23-39.06,5.46-69.7,5.46s-57.74-2.28-70.13-5.57c-4.72-1.25-7.36-2.66-7.36-4.14,0-5.36,34.69-9.71,77.5-9.71s77.5,4.35,77.5,9.71Z"/><path class="h" d="M267.26,104.64c-12.58,3.09-39.06,5.22-69.7,5.22s-57.74-2.18-70.13-5.33c12.58-3.09,39.06-5.22,69.7-5.22s57.74,2.18,70.13,5.33Z"/><ellipse class="c" cx="197.56" cy="278.73" rx="77.5" ry="9.29"/><path class="e" d="M197.4,166.15c0,14.74-6.93,26.69-15.48,26.69s-15.48-11.95-15.48-26.69c0-3.3,.35-6.46,.98-9.38,2.2-10.11,7.86-17.31,14.5-17.31s12.3,7.2,14.5,17.31c.64,2.92,.98,6.08,.98,9.38Z"/><ellipse class="e" cx="209.87" cy="166.15" rx="15.48" ry="26.69"/><polygon points="157.62 135.91 182.41 125.91 181.19 123.02 156.41 133.03 157.62 135.91"/><polygon points="209.87 125.07 233.92 136.66 235.33 133.86 211.28 122.27 209.87 125.07"/><ellipse cx="178.22" cy="162.26" rx="2.87" ry="4.85"/><ellipse cx="205.3" cy="161.73" rx="2.87" ry="4.85"/><path class="g" d="M196.42,156.77c-3.9,1.55-10.51,3.51-18.65,2.63-4.14-.45-7.63-1.52-10.35-2.63-.6-9.32,6.21-17.31,14.5-17.31,6.64,0,12.3,7.2,14.5,17.31Z"/><path class="g" d="M224.39,156.42c-3.9,1.55-10.51,3.51-18.65,2.63-4.14-.45-7.63-1.52-10.35-2.63-.6-9.32,6.21-17.31,14.5-17.31,6.64,0,12.3,7.2,14.5,17.31Z"/><g><path d="M213.69,213.43l-.91,1.21h0l-6.55,8.72-7.47,9.93c-1.04,1.38-3.63,1.38-4.67,0l-7.47-9.93-6.51-8.66-.95-1.26c-.85-1.14-.13-2.51,1.32-2.96,.31-.1,.65-.15,1.02-.15h29.86c.36,0,.7,.05,1.01,.15,1.45,.45,2.18,1.82,1.33,2.96Z"/><g><rect class="f" x="202.69" y="210.33" width="6.02" height="4.74" rx=".37" ry=".37"/><rect class="f" x="196.5" y="210.33" width="6.02" height="4.74" rx=".37" ry=".37"/><rect class="f" x="190.31" y="210.33" width="6.02" height="4.74" rx=".37" ry=".37"/><rect class="f" x="184.12" y="210.33" width="6.02" height="4.74" rx=".37" ry=".37"/><path class="f" d="M213.69,213.29l-.91,1.21h0l-.45,.43c-.09,.09-.23,.14-.37,.13h-2.56c-.29,0-.53-.19-.53-.42l.02-3.98h0c0-.19,.23-.34,.47-.34h2.99c1.45,.45,2.18,1.82,1.33,2.96Z"/><path class="f" d="M183.95,214.66c0,.23-.24,.41-.53,.41h-2.55c-.14,0-.28-.05-.37-.14l-.4-.38-.95-1.26c-.85-1.14-.13-2.51,1.32-2.96h3c.25,0,.47,.16,.47,.35h0v3.98Z"/></g></g><rect class="f" x="83.29" y="156.66" width="17.77" height="6.62" rx=".52" ry=".52"/><rect class="f" x="83.51" y="163.28" width="17.55" height="6.62" rx=".52" ry=".52"/><rect class="f" x="83.51" y="169.9" width="17.55" height="6.62" rx=".52" ry=".52"/><path class="j" d="M275.05,101.36l-.64,1.23h0c-.2,.11-4.1,2.06-8.71,3.36-1.68,.47-3.45,.86-5.18,1.03-6.59,.67-3.14,154.85-29.05,156.96-9.75,.79-28.31,3.09-47.66,5.63-26.8,3.53-55.13,7.56-63.68,8.78-.17,.03-.34,.05-.49,.07v.3h.43c0,5.13,34.7,9.29,77.5,9.29s77.5-4.16,77.5-9.29V101.38l-.02-.02Z"/><path class="k" d="M215.66,190.8c-.44-1.1-.73-2.27-.87-3.46-.13-1.08,0-2.24-.41-3.26-.34-.85-1.05-1.46-1.83-1.32-.45,.08-.88,.35-1.3,.54l-1.51,.69c-.42,.19-.06,.97,.35,.78l1.29-.59c.4-.19,.81-.43,1.24-.54,.75-.2,1.17,.72,1.28,1.49,.07,.49,.06,.98,.09,1.47,.03,.52,.09,1.04,.18,1.55,.17,1.04,.47,2.05,.85,3.03,.2,.52,.83,.15,.63-.37h0Z"/><path class="k" d="M210.16,184.17c-.23-.57-.47-1.15-.82-1.63s-.8-.78-1.3-.98c-.59-.23-1.18-.45-1.78-.67-.51-.19-.96-.38-1.46-.14-.91,.44-1.49,1.51-1.98,2.47-.13,.26-.26,.52-.4,.77-.07,.13-.14,.25-.21,.37-.05,.09-.15,.32-.24,.36-.11,.05-.31-.08-.42-.13l-.44-.18-.88-.36c-.45-.19-.64,.63-.19,.81,.54,.22,1.08,.49,1.63,.67s.86-.19,1.16-.68c.55-.92,.94-2.01,1.65-2.78,.34-.37,.72-.69,1.21-.51,.57,.21,1.13,.42,1.69,.63,.48,.18,.98,.32,1.35,.78s.58,1.02,.8,1.57c.21,.52,.83,.15,.63-.37h0Z"/><path class="k" d="M213.61,183.2c-.67-1.18-1.35-2.39-1.79-3.71s-.49-2.59-.37-3.91c.06-.66,.18-1.3,.25-1.95,.07-.6,0-1.17-.33-1.69-.36-.57-.84-1-1.22-1.55s-.69-1.21-.93-1.88c-.19-.52-.82-.15-.63,.37,.24,.66,.54,1.28,.91,1.86s.83,1.03,1.22,1.57,.27,1.12,.18,1.74c-.09,.65-.18,1.3-.22,1.96-.08,1.31,.08,2.6,.5,3.86,.45,1.32,1.12,2.53,1.79,3.71,.27,.47,.9,.11,.63-.37h0Z"/><path class="k" d="M211.6,174.02c.71-.48,1.56-.58,2.38-.28,.19,.07,.39-.04,.44-.26s-.06-.48-.25-.55c-.99-.37-2.06-.27-2.92,.31-.16,.11-.24,.36-.14,.58,.09,.2,.33,.32,.49,.21h0Z"/><polygon points="275.06 186.14 269.66 193.67 263.77 199.89 256.65 206.17 247.11 214.53 238.74 221.34 232.28 225.89 228.41 228.65 230.94 232.57 237.37 228.13 244.44 223.42 252.98 216.89 260.78 210.89 267.21 204.6 273.41 199.89 275.06 198.58 275.06 186.14"/><path class="k" d="M214.38,173.61c.49-.59,.86-1.27,1.13-2.05l-.6,.14c.66,.79,1.31,1.59,1.97,2.38,.15,.18,.3,.32,.52,.32s.4-.16,.57-.27l1.19-.77c.39-.25,.04-1.04-.35-.78l-1,.64c-.15,.1-.3,.22-.46,.3,.09,.06,.1,.04,0-.05l-.06-.08-.23-.27-1.64-1.99c-.21-.26-.5-.15-.6,.14-.22,.63-.55,1.2-.95,1.68-.31,.38,.19,1.04,.51,.66h0Z"/><g><path class="k" d="M171.45,185.83c.67-.13,1.32-.3,1.94-.51,.29-.1,.58-.2,.85-.34,.33-.17,.63-.42,.58-.82-.03-.21-.21-.43-.47-.46-.23-.02-.47,.11-.44,.34,0,.01,0,.1,0,.06,.01-.05-.03,.05,0,0,.02-.04-.03,.04-.04,.04,.03-.03,0,0-.01,0-.03,.02-.05,.04-.08,.06,0,0-.08,.05-.04,.02-.06,.03-.12,.05-.17,.08-.26,.11-.52,.2-.78,.29s-.52,.17-.79,.24c-.29,.08-.5,.12-.8,.18-.22,.04-.39,.21-.3,.44,.08,.2,.33,.4,.57,.36h0Z"/><path class="k" d="M174.87,184.18c.1-.91-.4-1.86-.89-2.74l-.37,.54c.75,.17,1.46,.04,2.11-.16,.74-.23,1.46-.5,2.19-.76,.5-.18,.03-.93-.48-.75-.68,.24-1.35,.49-2.04,.71-.56,.18-1.15,.32-1.81,.16-.37-.09-.51,.28-.37,.54,.42,.76,.84,1.54,.76,2.33-.02,.21,.25,.43,.47,.46,.27,.04,.42-.13,.44-.34h0Z"/><path class="k" d="M178.06,180.69c-.13-.87-.78-1.7-1.34-2.47s-1.24-1.57-2.11-2.16c-.4-.27-.83-.47-1.27-.64-.34-.13-.77-.26-1.04-.52-.32-.3-.18-.79-.3-1.14-.14-.45-.44-.86-.75-1.27-.35-.46-1.12-.18-.77,.29,.29,.38,.62,.79,.69,1.23,.07,.39,.01,.73,.27,1.1,.46,.67,1.36,.88,2.08,1.2,.89,.4,1.6,1.13,2.16,1.85,.29,.38,.56,.76,.82,1.15s.58,.82,.65,1.26c.08,.51,.99,.64,.91,.12h0Z"/><path class="k" d="M177.84,181.16c.18,.09,.33,.14,.52,.2,.12,.04,.11,.07,.05-.02-.07-.11,.02-.06-.03-.03-.08,.05-.18,.2-.26,.28l-.34,.35c-.25,.25-.52,.49-.74,.76s-.31,.64-.11,1.01c.33,.59,1.14,.88,1.74,1.17,.74,.35,1.48,.7,2.16,1.17,.5,.35,.93-.27,.44-.62-.68-.48-1.44-.84-2.2-1.2-.33-.15-.67-.3-.98-.48-.12-.07-.24-.14-.32-.23-.04-.05-.06-.07-.04-.15,.04-.13,.17-.24,.27-.33,.12-.12,.25-.25,.37-.37,.24-.25,.51-.48,.73-.74,.21-.23,.29-.57,.07-.88-.11-.17-.29-.29-.48-.37-.12-.05-.3-.07-.4-.13-.23-.12-.49-.13-.62,.05-.11,.15-.05,.45,.18,.57h0Z"/></g><g><path class="k" d="M195.2,174.97c-.52-.82-.66-1.71-.63-2.64,.02-.45-.07-.88-.4-1.2-.36-.35-.85-.52-1.27-.73l-.65-.32c-.21-.1-.47-.19-.67-.35s-.2-.41-.25-.64l-.18-.86-.71-3.33c-.09-.42-.65-.34-.56,.08l.73,3.43c.06,.29,.12,.57,.18,.86,.05,.25,.11,.52,.25,.73,.28,.4,.79,.56,1.18,.75,.44,.22,.9,.42,1.34,.66,.22,.13,.4,.27,.43,.57,.02,.23-.02,.45-.02,.68,0,.95,.3,1.89,.81,2.7,.23,.36,.64-.04,.41-.4h0Z"/><path class="k" d="M193.84,163.88c-.5,.72-1.4,.82-2.19,.85s-1.52,.04-2.26,.27c-1.35,.43-2.53,1.43-2.98,2.99-.11,.39,.44,.64,.55,.25,.44-1.54,1.72-2.43,3.07-2.72,1.47-.31,3.27,.2,4.29-1.25,.22-.31-.28-.71-.49-.4h0Z"/><path class="k" d="M186.73,168.07c.12,.1,.2,.26,.26,.44,.07,.22,.11,.44,.15,.66,.03,.18,.07,.41,.09,.56,.02,.2,.02,.42,0,.59s.04,.36,.2,.43c.14,.06,.32,0,.35-.18,.08-.5,.02-1.01-.08-1.52-.1-.55-.23-1.14-.67-1.51-.13-.11-.31-.08-.39,.06s-.03,.35,.1,.47h0Z"/><path class="k" d="M187.43,170.21c-.05,0-.11,0-.16,0-.03,0-.05,0-.08,0-.03,0,.07,0,.02,0h-.05c-.11,0-.22-.02-.33-.03s-.22-.04-.33-.07h-.04s0-.01,.02,0c-.03,0-.05-.02-.08-.03-.06-.02-.11-.04-.17-.06-.15-.06-.32,0-.35,.18-.03,.16,.04,.37,.2,.43,.49,.19,.99,.27,1.49,.23,.15-.01,.25-.2,.21-.37-.05-.18-.19-.3-.35-.29h0Z"/><path class="k" d="M185.91,170.12c-1.1,.87-2.11,2.08-2.12,3.8,0,.42,.57,.51,.57,.09,0-1.54,.97-2.58,1.95-3.36,.29-.23-.12-.75-.4-.53h0Z"/><path class="k" d="M183.85,174.24c.55,.63,1.06,1.3,1.52,2.01,.23,.35,.44,.71,.64,1.09,.15,.28,.39,.64,.39,.97,0,.42,.57,.51,.57,.09,0-.4-.17-.75-.35-1.09-.21-.41-.45-.82-.69-1.21-.5-.81-1.06-1.56-1.67-2.26-.28-.32-.69,.08-.41,.4h0Z"/><path class="k" d="M186.45,178.18l-.03,.05s-.02,.02,0,0c-.02,.03-.05,.05-.07,.08-.05,.05-.1,.1-.15,.14-.1,.09-.21,.17-.3,.27-.19,.21-.34,.48-.34,.81,0,.17,.13,.36,.28,.37s.29-.1,.29-.29c0-.02,0-.03,0-.05,0-.04,0-.03,0,.01,0-.03,.01-.07,.02-.09,0-.01,0-.03,.01-.04-.02,.04-.02,.04,0,.01,.01-.02,.02-.04,.03-.06,.01-.03,.03-.05,.05-.08l.03-.04s-.03,.04,0,.01c.04-.04,.07-.08,.11-.12,.21-.2,.43-.35,.59-.61,.08-.13,.03-.37-.1-.47-.14-.11-.3-.08-.39,.06h0Z"/><path class="k" d="M186.14,168.04c-.61,.57-1.29,1.03-2.04,1.37-.73,.32-1.5,.46-2.27,.63s-1.47,.5-2.08,1.05c-.63,.57-1.13,1.3-1.63,2.02-.22,.31,.28,.71,.49,.4,.49-.7,.98-1.41,1.6-1.95s1.36-.78,2.16-.94c1.56-.31,2.97-.92,4.16-2.04,.27-.25-.13-.78-.4-.53h0Z"/></g><line class="f" x1="84.23" y1="163.28" x2="95.63" y2="163.28"/></g><path class="f" d="M223.01,229.3l-7.62,.31s-1.78,1.24-.12,2.34c1.66,1.11,6.04,.03,6.04,.03l-7.39,5.57s-1.15,2.02,1.52,1.89,6.71-4.88,6.71-4.88l-6.53,6.64s-.88,1.98,1.48,1.84c2.36-.14,7.78-5.85,7.78-5.85l-6.63,6.71s-.83,2.23,1.78,1.63c2.6-.6,7.57-5.55,7.57-5.55l4.77-4.81,1.63-3.54-5.09-4.6-5.88,2.27Z"/><path class="m" d="M196.17,40.66c.21,.41-.9,.86-.79,1.59,.12,.84,1.73,1.41,3.5,1.79,0,0,11.54,2.42,25.26,8.09,.28,.12,.77,.34,.79,.66,.05,.59-1.51,1.12-1.91,1.26-2.47,.84-4.18,.34-6.35,.46-2.03,.12-5.49,.84-6.28,2.19-1.99,3.41,14.16,9.01,13.82,15.98-.42,8.71-26.26,13.6-24.94,19.83,.48,2.29,4.14,2.46,5,5.9,1.12,4.44-3.72,9.18-4.61,8.89-.64-.21,1.39-2.83-.08-5.24-1.81-2.96-6.68-1.99-9.77-4.97-1.84-1.78-3.28-4.82-2.07-6.9,.72-1.24,1.92-1.35,8.66-4.24,3.96-1.7,4.55-2.09,5-2.79,1.45-2.22,.18-5.49-1.83-7.49-2.36-2.36-5.41-2.66-10.17-3.65-8.33-1.74-16.65-3.47-21.69-8.42-.74-.72-5.31-5.22-3.65-8.69,2.39-5,16.63-5.55,17.32-5.57,2.56-.08,10.11-.08,12.39-2.06,.19-.16,.65-.57,.56-.99-.25-1.07-3.68-.71-4.53-2.19-.55-.96,.32-2.12,.48-2.32,1.52-1.94,5.52-1.83,5.88-1.13Z"/><path class="m" d="M59.18,112.58c.08,.17-.33,.36-.29,.66,.04,.35,.63,.59,1.27,.75,0,0,4.19,1.01,9.18,3.38,.1,.05,.28,.14,.29,.28,.02,.25-.55,.47-.69,.53-.9,.35-1.52,.14-2.31,.19-.74,.05-1.99,.35-2.28,.91-.72,1.42,5.15,3.76,5.02,6.67-.15,3.63-9.54,5.68-9.06,8.28,.18,.95,1.5,1.03,1.82,2.46,.41,1.85-1.35,3.83-1.67,3.71-.23-.09,.51-1.18-.03-2.19-.66-1.23-2.43-.83-3.55-2.08-.67-.74-1.19-2.01-.75-2.88,.26-.52,.7-.56,3.15-1.77,1.44-.71,1.65-.87,1.82-1.16,.53-.92,.06-2.29-.66-3.13-.86-.99-1.97-1.11-3.69-1.52-3.03-.73-6.05-1.45-7.88-3.51-.27-.3-1.93-2.18-1.33-3.63,.87-2.08,6.04-2.32,6.29-2.32,.93-.03,3.68-.03,4.5-.86,.07-.07,.24-.24,.2-.42-.09-.45-1.34-.29-1.65-.91-.2-.4,.12-.88,.17-.97,.55-.81,2-.76,2.14-.47Z"/></svg>