<svg xmlns="http://www.w3.org/2000/svg" viewBox="0 0 175.98 64.14"><defs><style>.cls-1{fill:#fcfcfc;}</style></defs><g id="Layer_2" data-name="Layer 2"><g id="Layer_1-2" data-name="Layer 1"><path class="cls-1" d="M0,21.69,4.59,1.89H12a10.41,10.41,0,0,1,4.86,1,6.9,6.9,0,0,1,2.94,2.84,8.71,8.71,0,0,1,1,4.24,14.83,14.83,0,0,1-.74,4.8,10,10,0,0,1-2.17,3.69,9.87,9.87,0,0,1-3.48,2.37,12.21,12.21,0,0,1-4.68.84Zm7.2-4.47H9.42a4.17,4.17,0,0,0,2.35-.65,4.89,4.89,0,0,0,1.64-1.71,8.21,8.21,0,0,0,.94-2.36,11.14,11.14,0,0,0,.32-2.6A4.54,4.54,0,0,0,14.31,8a2.63,2.63,0,0,0-1.08-1.22,3.66,3.66,0,0,0-1.86-.42H9.69Z"/><path class="cls-1" d="M26.82,22a4.94,4.94,0,0,1-2.52-.66,4.61,4.61,0,0,1-1.8-1.95,7,7,0,0,1-.66-3.21,12.52,12.52,0,0,1,.51-3.54A11.34,11.34,0,0,1,23.8,9.48a7.58,7.58,0,0,1,2.3-2.25,5.73,5.73,0,0,1,3.09-.84,4.73,4.73,0,0,1,1.72.33,3.67,3.67,0,0,1,2.36,3L34,6.69h6.06l-3.48,15H31.05l.51-2.85a6.07,6.07,0,0,1-2,2.31A4.78,4.78,0,0,1,26.82,22Zm2.82-4.35a1.68,1.68,0,0,0,1.14-.45A3.84,3.84,0,0,0,31.66,16a6.66,6.66,0,0,0,.57-1.57,7.06,7.06,0,0,0,.2-1.59,2.78,2.78,0,0,0-.21-1.13,1.72,1.72,0,0,0-.59-.71,1.57,1.57,0,0,0-.91-.26,1.84,1.84,0,0,0-1.26.48,3.94,3.94,0,0,0-.9,1.2A6.62,6.62,0,0,0,28,14a6.73,6.73,0,0,0-.18,1.44,3.36,3.36,0,0,0,.19,1.2,1.63,1.63,0,0,0,.59.78A1.76,1.76,0,0,0,29.64,17.64Z"/><path class="cls-1" d="M39.42,21.69l3.48-15h5.37L47.43,12l-.24-.51a7,7,0,0,1,2.22-3.75,5.77,5.77,0,0,1,3.81-1.32,4.65,4.65,0,0,1,2.61.69A3.63,3.63,0,0,1,57.3,9a5.53,5.53,0,0,1,0,3l-2.25,9.63H49l2.07-8.76a1.85,1.85,0,0,0-.15-1.47,1.33,1.33,0,0,0-1.2-.54,1.94,1.94,0,0,0-1.07.3,2.37,2.37,0,0,0-.78.87,5.83,5.83,0,0,0-.52,1.44l-1.86,8.16Z"/><path class="cls-1" d="M67.41,6.69l-3.48,15H57.87l3.48-15ZM65,5.37a4,4,0,0,1-2.36-.6A1.91,1.91,0,0,1,62,2.82,3.06,3.06,0,0,1,63.06.63,4.26,4.26,0,0,1,65.58,0,4,4,0,0,1,68,.61a1.84,1.84,0,0,1,.65,1.88A3,3,0,0,1,67.5,4.77,4.51,4.51,0,0,1,65,5.37Z"/><path class="cls-1" d="M75.66,22a9.14,9.14,0,0,1-4-.83,6.33,6.33,0,0,1-2.72-2.36,6.67,6.67,0,0,1-1-3.62A9.5,9.5,0,0,1,69,10.57,7.77,7.77,0,0,1,72,7.5a9.12,9.12,0,0,1,4.61-1.11,8.6,8.6,0,0,1,4,.84,5.79,5.79,0,0,1,2.48,2.34,7.07,7.07,0,0,1,.84,3.51c0,.38,0,.79-.06,1.21a5.73,5.73,0,0,1-.24,1.22H72V12.87H79.5L78,13.56a2.2,2.2,0,0,0,.16-.68c0-.18,0-.37,0-.55a2.3,2.3,0,0,0-.21-1.06,1.37,1.37,0,0,0-.59-.6,1.81,1.81,0,0,0-.85-.2,2.32,2.32,0,0,0-1.5.47,3,3,0,0,0-.93,1.24,6.57,6.57,0,0,0-.45,1.66,12.61,12.61,0,0,0-.12,1.67,2.75,2.75,0,0,0,.3,1.35,1.78,1.78,0,0,0,.84.79,2.71,2.71,0,0,0,1.23.26,2.22,2.22,0,0,0,1.45-.45,2.55,2.55,0,0,0,.8-1.08l5,1.77a4.92,4.92,0,0,1-1.59,2.06,8.19,8.19,0,0,1-2.63,1.3A11.46,11.46,0,0,1,75.66,22Z"/><path class="cls-1" d="M90.3,22q-2.91,0-4.11-1.56a4.85,4.85,0,0,1-.57-4.23L89.25.51h6.06l-3.6,15.54a1.82,1.82,0,0,0,.09,1.39,1.31,1.31,0,0,0,1.2.47,4.67,4.67,0,0,0,.57,0l.39-.06-1,3.78a3.92,3.92,0,0,1-1.11.28A13.1,13.1,0,0,1,90.3,22Z"/><path class="cls-1" d="M47.88,57.69l4.59-19.8h6.45l3.09,10,.81,3h.06l.87-4.47,2-8.58H71.1l-4.59,19.8H60.15l-3.21-9.81-.84-3H56l-.81,4.23-2,8.58Z"/><path class="cls-1" d="M71.73,64.14a10.12,10.12,0,0,1-2.52-.3,5.86,5.86,0,0,1-1.83-.75L68.94,59a4,4,0,0,0,2.67.87A3.41,3.41,0,0,0,73,59.55a2.16,2.16,0,0,0,1-.84l.33-.54L71.67,42.69h6.15l.12,7.89,0,3.63,1.53-3.6L83,42.69h6.36l-9,15.66a17,17,0,0,1-2.45,3.38,7.77,7.77,0,0,1-2.71,1.84A9.34,9.34,0,0,1,71.73,64.14Z"/><path class="cls-1" d="M93.39,64.14a10.59,10.59,0,0,1-2.66-.33,7.13,7.13,0,0,1-2.29-1A4.82,4.82,0,0,1,86.86,61a5.27,5.27,0,0,1-.52-2.55L92.4,58a3.76,3.76,0,0,0,.3,1.77,1.45,1.45,0,0,0,1.44.66,1.84,1.84,0,0,0,1.06-.32,2.71,2.71,0,0,0,.83-1,6.64,6.64,0,0,0,.6-1.76l1.23-5.31.21.15A6.94,6.94,0,0,1,96.3,56a4.65,4.65,0,0,1-3.39,1.3,4.93,4.93,0,0,1-2.54-.66,4.63,4.63,0,0,1-1.78-1.93,6.81,6.81,0,0,1-.66-3.14,11.73,11.73,0,0,1,.49-3.39,9.65,9.65,0,0,1,1.44-3,7.28,7.28,0,0,1,2.28-2.08,6.07,6.07,0,0,1,3-.76,4.44,4.44,0,0,1,2,.48,3.77,3.77,0,0,1,1.57,1.55,5.1,5.1,0,0,1,.56,2.77l-.63.93,1.23-5.43H106l-3.24,14a11.43,11.43,0,0,1-1.86,4.44,6.8,6.8,0,0,1-3.08,2.31A12.53,12.53,0,0,1,93.39,64.14ZM95.73,53a1.81,1.81,0,0,0,1.42-.65,4.29,4.29,0,0,0,.9-1.6,6.22,6.22,0,0,0,.32-1.95,2.7,2.7,0,0,0-.21-1.1,1.61,1.61,0,0,0-1.53-1,1.93,1.93,0,0,0-1.53.68A4.26,4.26,0,0,0,94.2,49a5.8,5.8,0,0,0-.3,1.75,2.74,2.74,0,0,0,.43,1.61A1.6,1.6,0,0,0,95.73,53Z"/><path class="cls-1" d="M111.27,58a4.94,4.94,0,0,1-2.52-.66,4.61,4.61,0,0,1-1.8-1.95,7,7,0,0,1-.66-3.21,12.52,12.52,0,0,1,.51-3.54,11.34,11.34,0,0,1,1.45-3.15,7.58,7.58,0,0,1,2.3-2.25,5.73,5.73,0,0,1,3.09-.84,4.73,4.73,0,0,1,1.72.33,3.67,3.67,0,0,1,2.36,3l.72-3.06h6.06l-3.48,15H115.5l.51-2.85a6.07,6.07,0,0,1-2,2.31A4.78,4.78,0,0,1,111.27,58Zm2.82-4.35a1.68,1.68,0,0,0,1.14-.45,3.84,3.84,0,0,0,.88-1.19,6.66,6.66,0,0,0,.57-1.57,7.06,7.06,0,0,0,.2-1.59,2.78,2.78,0,0,0-.21-1.13,1.72,1.72,0,0,0-.59-.71,1.57,1.57,0,0,0-.91-.26,1.84,1.84,0,0,0-1.26.48,3.94,3.94,0,0,0-.9,1.2,6.62,6.62,0,0,0-.54,1.53,6.73,6.73,0,0,0-.18,1.44,3.36,3.36,0,0,0,.19,1.2,1.63,1.63,0,0,0,.59.78A1.76,1.76,0,0,0,114.09,53.64Z"/><path class="cls-1" d="M129.81,58a4.94,4.94,0,0,1-2.52-.66,4.61,4.61,0,0,1-1.8-1.95,7,7,0,0,1-.66-3.21,12.52,12.52,0,0,1,.51-3.54,11.34,11.34,0,0,1,1.45-3.15,7.58,7.58,0,0,1,2.3-2.25,5.73,5.73,0,0,1,3.09-.84,4.73,4.73,0,0,1,1.72.33,3.67,3.67,0,0,1,2.36,3l.72-3.06H143l-3.48,15H134l.51-2.85a6.07,6.07,0,0,1-2,2.31A4.78,4.78,0,0,1,129.81,58Zm2.82-4.35a1.68,1.68,0,0,0,1.14-.45,3.84,3.84,0,0,0,.88-1.19,6.66,6.66,0,0,0,.57-1.57,7.06,7.06,0,0,0,.2-1.59,2.78,2.78,0,0,0-.21-1.13,1.72,1.72,0,0,0-.59-.71,1.57,1.57,0,0,0-.91-.26,1.84,1.84,0,0,0-1.26.48,3.94,3.94,0,0,0-.9,1.2A6.62,6.62,0,0,0,131,50a6.73,6.73,0,0,0-.18,1.44,3.36,3.36,0,0,0,.19,1.2,1.63,1.63,0,0,0,.59.78A1.76,1.76,0,0,0,132.63,53.64Z"/><path class="cls-1" d="M142.41,57.69l3.48-15h5.4l-1.11,6.15-.18-.6a13,13,0,0,1,1.24-3.06,6,6,0,0,1,1.92-2.06,5.11,5.11,0,0,1,2.75-.73,4.93,4.93,0,0,1,.85.07,2.39,2.39,0,0,1,.56.2l-1.41,5a3,3,0,0,0-.72-.24,5.31,5.31,0,0,0-1.08-.09,4,4,0,0,0-1.7.39,4.18,4.18,0,0,0-1.47,1.21,5.81,5.81,0,0,0-1,2.24l-1.5,6.51Z"/><path class="cls-1" d="M161.34,58a4.94,4.94,0,0,1-2.52-.66,4.61,4.61,0,0,1-1.8-1.95,7,7,0,0,1-.66-3.21,12.52,12.52,0,0,1,.51-3.54,11.34,11.34,0,0,1,1.45-3.15,7.58,7.58,0,0,1,2.3-2.25,5.73,5.73,0,0,1,3.09-.84,4.73,4.73,0,0,1,1.72.33,3.67,3.67,0,0,1,2.36,3l2.13-9.24H176l-4.89,21.18h-5.52l.51-2.85a6.07,6.07,0,0,1-2,2.31A4.78,4.78,0,0,1,161.34,58Zm2.82-4.35a1.72,1.72,0,0,0,1.15-.45A3.57,3.57,0,0,0,166.2,52a7.72,7.72,0,0,0,.75-3.16,2.78,2.78,0,0,0-.21-1.13,1.72,1.72,0,0,0-.59-.71,1.57,1.57,0,0,0-.91-.26,1.84,1.84,0,0,0-1.26.48,3.94,3.94,0,0,0-.9,1.2,6.62,6.62,0,0,0-.54,1.53,6.73,6.73,0,0,0-.18,1.44,3.36,3.36,0,0,0,.19,1.2,1.63,1.63,0,0,0,.59.78A1.76,1.76,0,0,0,164.16,53.64Z"/></g></g></svg>