<svg id="Layer_1" data-name="Layer 1" xmlns="http://www.w3.org/2000/svg" viewBox="0 0 582 634"><defs><style>.cls-1{fill:#ccc;}.cls-2{fill:#fff;}.cls-3{fill:#c9c9c9;}.cls-4{fill:#cec8c8;}.cls-5{fill:#ef4141;}.cls-6{fill:#e5a423;}.cls-7{fill:#53c43b;}.cls-8{fill:#666;}.cls-9{fill:#545454;}.cls-10{fill:#8c8c8c;}.cls-11{fill:#939090;}</style></defs><rect class="cls-1" width="582" height="402" rx="12"/><rect class="cls-2" x="30" y="32" width="520" height="338" rx="12"/><rect class="cls-3" x="255" y="402" width="70" height="91"/><rect class="cls-4" x="48" y="54" width="480" height="301" rx="12"/><ellipse class="cls-5" cx="64" cy="70.5" rx="9" ry="8.5"/><ellipse class="cls-6" cx="92" cy="70.5" rx="9" ry="8.5"/><ellipse class="cls-7" cx="118" cy="70.5" rx="9" ry="8.5"/><rect class="cls-8" x="48" y="81" width="480" height="256"/><rect class="cls-9" x="48" y="81" width="31" height="256"/><rect class="cls-10" x="52" y="100" width="22" height="22"/><rect class="cls-10" x="52" y="131" width="22" height="22"/><rect class="cls-10" x="52" y="161" width="22" height="22"/><rect class="cls-10" x="52" y="191" width="22" height="22"/><rect class="cls-11" x="84" y="102" width="165" height="10"/><rect class="cls-11" x="84" y="129" width="78" height="11"/><rect class="cls-11" x="179" y="129" width="78" height="11"/><rect class="cls-11" x="85" y="155" width="139" height="13"/><rect class="cls-11" x="84" y="197" width="138" height="14"/><rect class="cls-11" x="84" y="246" width="236" height="13"/><rect class="cls-11" x="94" y="223" width="90" height="11"/><rect class="cls-11" x="192" y="224" width="90" height="11"/><rect class="cls-11" x="96" y="176" width="51" height="10"/><rect class="cls-11" x="83" y="291" width="168" height="15"/><rect class="cls-11" x="84" y="270" width="103" height="12"/><rect class="cls-1" x="192" y="462" width="197" height="31"/><rect class="cls-1" x="85" y="509" width="397" height="125"/><rect class="cls-11" x="94" y="522" width="34.99" height="22.58"/><rect class="cls-11" x="179.3" y="548.81" width="34.99" height="22.58"/><rect class="cls-11" x="135.56" y="548.81" width="34.99" height="22.58"/><rect class="cls-11" x="94" y="548.81" width="34.99" height="22.58"/><rect class="cls-11" x="220.85" y="548.81" width="34.99" height="22.58"/><rect class="cls-11" x="262.41" y="548.81" width="34.99" height="22.58"/><rect class="cls-11" x="303.96" y="548.81" width="34.99" height="22.58"/><rect class="cls-11" x="347.71" y="548.81" width="34.99" height="22.58"/><rect class="cls-11" x="391.45" y="548.81" width="34.99" height="22.58"/><rect class="cls-11" x="433.01" y="548.81" width="34.99" height="46.56"/><rect class="cls-11" x="433.01" y="522" width="34.99" height="22.58"/><rect class="cls-11" x="347.71" y="522" width="78.74" height="22.58"/><rect class="cls-11" x="303.96" y="522" width="34.99" height="22.58"/><rect class="cls-11" x="262.41" y="522" width="34.99" height="22.58"/><rect class="cls-11" x="220.85" y="522" width="34.99" height="22.58"/><rect class="cls-11" x="177.11" y="522" width="34.99" height="22.58"/><rect class="cls-11" x="135.56" y="522" width="34.99" height="22.58"/><rect class="cls-11" x="94" y="575.62" width="34.99" height="22.58"/><rect class="cls-11" x="179.3" y="602.42" width="34.99" height="22.58"/><rect class="cls-11" x="135.56" y="602.42" width="34.99" height="22.58"/><rect class="cls-11" x="94" y="602.42" width="34.99" height="22.58"/><rect class="cls-11" x="347.71" y="602.42" width="34.99" height="22.58"/><rect class="cls-11" x="220.85" y="602.42" width="118.11" height="22.58"/><rect class="cls-11" x="391.45" y="602.42" width="34.99" height="22.58"/><rect class="cls-11" x="433.01" y="602.42" width="34.99" height="22.58"/><rect class="cls-11" x="371.77" y="575.62" width="34.99" height="22.58"/><rect class="cls-11" x="303.96" y="575.62" width="34.99" height="22.58"/><rect class="cls-11" x="262.41" y="575.62" width="34.99" height="22.58"/><rect class="cls-11" x="220.85" y="575.62" width="34.99" height="22.58"/><rect class="cls-11" x="177.11" y="575.62" width="34.99" height="22.58"/><rect class="cls-11" x="135.56" y="575.62" width="34.99" height="22.58"/><rect class="cls-1" x="511" y="547" width="42.71" height="69" rx="21.36"/><rect class="cls-11" x="512" y="563" width="41" height="1.04"/><rect class="cls-11" x="532.04" y="547" width="0.96" height="16.19"/><rect class="cls-11" x="531.07" y="550.41" width="2.89" height="9.37" rx="1.44"/></svg>